# xmcd
#
# Track frame offsets: 
#        150
#        29394
#        51994
#        73523
#        95528
#        109264
#        134078
#        155692
#        172614
#        194091
#        212527
#        234908
#        247474
#        265294
#        284018
#        299439
#        307173
#        326290
#
# Disc length: 4497 seconds
#
# Revision: 5
# Processed by: cddbd v1.5.2PL0 Copyright (c) Steve Scherf et al.
# Submitted via: ExactAudioCopy v1.0b3
#
DISCID=20118f12
DTITLE=Herbert von Karajan - BEST KARAJAN 100 CD 6-6 Karajan and the V
DTITLE=oice
DYEAR=2008
DGENRE=Classical
TTITLE0=Herbert von Karajan-Berliner Philharmoniker,1974,1988 - Otello
TTITLE0=Una Vela! Una Vela! ... Esultate! [Act I]
TTITLE1=Herbert von Karajan-Berliner Philharmoniker,1974,1988 - Otello
TTITLE1=Ave Maria (Act IV)
TTITLE2=Herbert von Karajan-Berliner Philharmoniker,1979,1988 - Don Ca
TTITLE2=rlo - Dio, che nell' alma infondere (Act I)
TTITLE3=Herbert von Karajan-Berliner Philharmoniker,1979,1988 - Don Ca
TTITLE3=rlo - Nei giardin del bello (Act II)
TTITLE4=Herbert von Karajan-Berliner Philharmoniker,1978,1986 - Il tro
TTITLE4=vatore - Vedi le fosche ntturne spoglie (Act II, Scene I)
TTITLE5=Herbert von Karajan-Berliner Philharmoniker,1977,1988 - Ein de
TTITLE5=utshes Requiem - IV. Wie lieblich sind deine Wohnugen
TTITLE6=Herbert von Karajan-Philharmonia Orchestra,1957,2007 - Der Ros
TTITLE6=enkavalier - Herr Kavalier (Act II, Finale)
TTITLE7=Herbert von Karajan-Philharmonia Orchestra,1953,1999,mono - Hu
TTITLE7=mperdinck - Hänsel und Gretel - Brüderchen, komm tanz mit mir 
TTITLE7=(Act I)
TTITLE8=Herbert von Karajan-Berliner Philharmoniker,1971,1988 - Fideli
TTITLE8=o - Mir ist so wunderbar (Act I)
TTITLE9=Herbert von Karajan-Berliner Philharmoniker,1971,1988 - Fideli
TTITLE9=o - Wer ein holdes Weib errungen (Act II, Finale)
TTITLE10=Herbert von Karajan-Berliner Philharmoniker,1975,1988 - Missa
TTITLE10=solemnis - Gloria in excelis Deo - Gratias agimus tibi
TTITLE11=Herbert von Karajan-Orchester der Gesellschaft der Musikfreun
TTITLE11=de in Wien,1954,1999,mono - Mass in B minor - Crucifixus
TTITLE12=Herbert von Karajan-Orchester der Gesellschaft der Musikfreun
TTITLE12=de in Wien,1954,1999,mono - Bach - Mass in B minor - Et resur
TTITLE12=rexit
TTITLE13=Herbert von Karajan-RIAS Sinfonie-Orchester Berlin,1955,1977,
TTITLE13=mono - Lucia di Lammermoor - Spargi d'amor pianto (Act III)
TTITLE14=Herbert Herbert von Karajan-Wiener Philharmoniker,1980,1986 /
TTITLE14=Aida - Act II, Scene 2 - Gloria all' Egitto
TTITLE15=Herbert von Karajan-Wiener Philharmoniker,1980,1986 - Aida - 
TTITLE15=Act II, Scene 2 - Triumphal March
TTITLE16=Herbert von Karajan-Wiener Philharmoniker,1980,1986 - Aida - 
TTITLE16=Act II, Scene 2 - Ballet Music
TTITLE17=Herbert Herbert von Karajan-Wiener Philharmoniker,1980,1986 /
TTITLE17=Aida - Act II, Scene 2 - Vieni, o guerriero vindice
EXTD=YEAR: 2008
EXTT0=
EXTT1=
EXTT2=
EXTT3=
EXTT4=
EXTT5=
EXTT6=
EXTT7=
EXTT8=
EXTT9=
EXTT10=
EXTT11=
EXTT12=
EXTT13=
EXTT14=
EXTT15=
EXTT16=
EXTT17=
PLAYORDER=
